<?xml version="1.0" encoding="utf-8"?>
<!-- Generator: Adobe Illustrator 23.0.3, SVG Export Plug-In . SVG Version: 6.00 Build 0)  -->
<svg version="1.1" id="Layer_1" xmlns="http://www.w3.org/2000/svg" xmlns:xlink="http://www.w3.org/1999/xlink" x="0px" y="0px"
	 viewBox="0 0 100 100" style="enable-background:new 0 0 100 100;" xml:space="preserve">
<style type="text/css">
	.st0{fill:#FFFFFF;}
	.st1{font-family:'Phosphate-Inline';}
	.st2{font-size:14px;}
</style>
<g>
	<path class="st0" d="M27.6,59c-4.7,0-8.6-3.9-8.6-8.6v-6.8c0-4.7,3.9-8.6,8.6-8.6h48.8c4.7,0,8.6,3.9,8.6,8.6v6.8
		c0,4.7-3.9,8.6-8.6,8.6H27.6z"/>
	<path d="M76.4,36c4.2,0,7.6,3.4,7.6,7.6v6.8c0,4.2-3.4,7.6-7.6,7.6H27.6c-4.2,0-7.6-3.4-7.6-7.6v-6.8c0-4.2,3.4-7.6,7.6-7.6H76.4
		 M76.4,34H27.6c-5.3,0-9.6,4.3-9.6,9.6v6.8c0,5.3,4.3,9.6,9.6,9.6h48.8c5.3,0,9.6-4.3,9.6-9.6v-6.8C86,38.3,81.7,34,76.4,34
		L76.4,34z"/>
</g>
<text transform="matrix(1 0 0 1 24.75 51.9956)" class="st1 st2">Shopper</text>
</svg>
