<?xml version="1.0" encoding="utf-8"?>
<!-- Generator: Adobe Illustrator 23.0.3, SVG Export Plug-In . SVG Version: 6.00 Build 0)  -->
<svg version="1.1" id="Layer_1" xmlns="http://www.w3.org/2000/svg" xmlns:xlink="http://www.w3.org/1999/xlink" x="0px" y="0px"
	 viewBox="0 0 100 38" style="enable-background:new 0 0 100 38;" xml:space="preserve">
<style type="text/css">
	.st0{fill:#FFFFFF;}
	.st1{font-family:'Phosphate-Inline';}
	.st2{font-size:20.5882px;}
</style>
<g>
	<path class="st0" d="M9.6,37.1c-4.7,0-8.6-3.9-8.6-8.6V9.5c0-4.7,3.9-8.6,8.6-8.6h80.8c4.7,0,8.6,3.9,8.6,8.6v19.1
		c0,4.7-3.9,8.6-8.6,8.6H9.6z"/>
	<path d="M90.4,1.9c4.2,0,7.6,3.4,7.6,7.6v19.1c0,4.2-3.4,7.6-7.6,7.6H9.6c-4.2,0-7.6-3.4-7.6-7.6V9.5c0-4.2,3.4-7.6,7.6-7.6H90.4
		 M90.4-0.1H9.6C4.3-0.1,0,4.2,0,9.5v19.1c0,5.3,4.3,9.6,9.6,9.6h80.8c5.3,0,9.6-4.3,9.6-9.6V9.5C100,4.2,95.7-0.1,90.4-0.1
		L90.4-0.1z"/>
</g>
<text transform="matrix(1 0 0 1 8.9272 26.3467)" class="st1 st2">Shopper</text>
</svg>
